<?xml version="1.0" standalone="no"?>
<!DOCTYPE svg PUBLIC "-//W3C//DTD SVG 20010904//EN"
 "http://www.w3.org/TR/2001/REC-SVG-20010904/DTD/svg10.dtd">
<svg version="1.0" xmlns="http://www.w3.org/2000/svg"
 width="30.000000pt" height="30.000000pt" viewBox="0 0 30.000000 30.000000"
 preserveAspectRatio="xMidYMid meet">
<metadata>
Created by potrace 1.16, written by Peter Selinger 2001-2019
</metadata>
<g transform="translate(0.000000,30.000000) scale(0.003261,-0.003261)"
fill="#000000" stroke="none">
<path d="M2550 7720 l0 -130 130 0 130 0 0 130 0 130 -130 0 -130 0 0 -130z"/>
<path d="M3470 7590 l0 -260 130 0 130 0 0 260 0 260 -130 0 -130 0 0 -260z"/>
<path d="M4390 7720 l0 -130 -130 0 -130 0 0 -130 0 -130 130 0 130 0 0 130 0
130 130 0 130 0 0 130 0 130 -130 0 -130 0 0 -130z"/>
<path d="M2817 7583 c-4 -3 -7 -62 -7 -130 l0 -123 130 0 130 0 0 130 0 130
-123 0 c-68 0 -127 -3 -130 -7z"/>
<path d="M3340 6930 l0 -130 260 0 260 0 0 130 0 130 -260 0 -260 0 0 -130z"/>
<path d="M2290 6810 l0 -130 260 0 260 0 0 130 0 130 -260 0 -260 0 0 -130z"/>
<path d="M4390 6810 l0 -130 260 0 260 0 0 130 0 130 -260 0 -260 0 0 -130z"/>
<path d="M3078 5618 l-3 -1183 -132 -3 -133 -3 0 -124 0 -124 133 -3 132 -3 3
-133 3 -133 127 3 127 3 0 1440 0 1440 -127 3 -128 3 -2 -1183z"/>
<path d="M3868 5620 l-3 -1180 130 0 130 0 0 522 0 523 263 3 262 2 0 130 0
130 -265 0 -265 0 2 525 3 525 -127 0 -128 0 -2 -1180z"/>
<path d="M4654 5481 c-2 -2 -4 -238 -4 -523 l0 -518 130 0 130 0 2 393 3 392
263 3 263 2 -3 125 -3 126 -388 2 c-214 1 -391 0 -393 -2z"/>
<path d="M5440 4700 l0 -520 130 0 130 0 0 390 0 389 133 3 132 3 3 128 3 127
-266 0 -265 0 0 -520z"/>
<path d="M5970 4830 l0 -130 130 0 130 0 0 130 0 130 -130 0 -130 0 0 -130z"/>
<path d="M2030 4305 l0 -395 125 0 125 0 2 263 3 262 263 3 262 2 0 130 0 130
-390 0 -390 0 0 -395z"/>
<path d="M6237 4693 c-4 -3 -7 -476 -7 -1050 l0 -1043 130 0 130 0 0 1050 0
1050 -123 0 c-68 0 -127 -3 -130 -7z"/>
<path d="M2290 3780 l0 -130 130 0 130 0 0 130 0 130 -130 0 -130 0 0 -130z"/>
<path d="M2557 3643 c-4 -3 -7 -123 -7 -265 l0 -258 130 0 130 0 0 265 0 265
-123 0 c-68 0 -127 -3 -130 -7z"/>
<path d="M2817 3113 c-4 -3 -7 -120 -7 -260 l0 -253 130 0 130 0 0 260 0 260
-123 0 c-68 0 -127 -3 -130 -7z"/>
<path d="M3080 2330 l0 -261 128 3 127 3 3 258 2 257 -130 0 -130 0 0 -260z"/>
<path d="M5970 2330 l0 -260 130 0 130 0 0 260 0 260 -130 0 -130 0 0 -260z"/>
<path d="M3340 1675 l0 -395 1313 2 1312 3 0 390 0 390 -127 3 c-99 2 -128 0
-129 -10 0 -7 -1 -125 -2 -263 l-2 -250 -1052 -3 -1053 -2 0 265 0 265 -130 0
-130 0 0 -395z"/>
</g>
</svg>
